<svg width="24" height="26" viewBox="0 0 24 26" fill="none" xmlns="http://www.w3.org/2000/svg">
<path d="M11.562 9.6875C13.2883 9.6875 14.687 11.0862 14.687 12.8125C14.687 14.5388 13.2883 15.9375 11.562 15.9375C9.83576 15.9375 8.43701 14.5388 8.43701 12.8125" stroke="white" stroke-width="1.875" stroke-linecap="round" stroke-linejoin="round"/>
<path d="M5.57728 5.73609C4.09728 4.87484 2.20603 5.38484 1.35228 6.87484C0.498533 8.36609 1.00478 10.2711 2.48478 11.1298C3.76853 11.8786 3.76853 13.7461 2.48478 14.4948C1.00478 15.3548 0.498533 17.2611 1.35228 18.7498C2.20603 20.2398 4.09728 20.7498 5.57603 19.8911H5.57728C6.86228 19.1423 8.46853 20.0773 8.46853 21.5723C8.46853 23.2923 9.85478 24.6873 11.5623 24.6873C13.2698 24.6873 14.6548 23.2923 14.6548 21.5723C14.6548 20.0773 16.2623 19.1423 17.5485 19.8911" stroke="white" stroke-width="1.875" stroke-linecap="round" stroke-linejoin="round"/>
<path d="M21.772 18.75C22.627 17.2613 22.1195 15.355 20.6408 14.495H20.6395C19.3545 13.7462 19.3545 11.8788 20.6408 11.13C22.1195 10.2713 22.627 8.36625 21.772 6.875C20.917 5.385 19.0258 4.875 17.5483 5.73625C16.262 6.4825 14.6545 5.54875 14.6545 4.0525C14.6545 2.3325 13.2695 0.9375 11.562 0.9375C9.85451 0.9375 8.46826 2.3325 8.46826 4.0525" stroke="white" stroke-width="1.875" stroke-linecap="round" stroke-linejoin="round"/>
</svg>
