<svg width="33" height="33" viewBox="0 0 33 33" fill="none" xmlns="http://www.w3.org/2000/svg">
<path d="M16.2507 27.8765C19.3607 27.8765 22.5357 32.9081 25.4857 30.6848C28.4357 28.4598 24.9857 23.9898 25.6841 20.8081C26.3824 17.6248 32.0307 16.3665 31.1591 12.6581C30.2891 8.95146 24.0057 11.3398 21.9874 9.25146" stroke="#1A1A1A" stroke-width="2.5" stroke-linecap="round" stroke-linejoin="round"/>
<path d="M19.798 4.85333C19.008 2.95333 18.0714 1.25 16.2514 1.25C12.858 1.25 12.5364 7.16167 10.5164 9.25C8.49637 11.3383 2.21471 8.95 1.34304 12.6567C0.471372 16.365 6.12137 17.6233 6.81804 20.8067C7.51971 23.9883 4.06637 28.4583 7.01637 30.6833C8.60471 31.8817 10.2597 30.975 11.933 29.8817" stroke="#1A1A1A" stroke-width="2.5" stroke-linecap="round" stroke-linejoin="round"/>
</svg>
