<svg width="34" height="34" viewBox="0 0 34 34" fill="none" xmlns="http://www.w3.org/2000/svg">
<path d="M16.6667 32.0832C28.2283 32.0832 32.0833 28.2282 32.0833 16.6665" stroke="#1A1A1A" stroke-width="2.5" stroke-linecap="round" stroke-linejoin="round"/>
<path d="M16.6667 1.25C5.105 1.25 1.25 5.105 1.25 16.6667C1.25 25.9217 3.72 30.2383 10.6367 31.5917" stroke="#1A1A1A" stroke-width="2.5" stroke-linecap="round" stroke-linejoin="round"/>
<path fill-rule="evenodd" clip-rule="evenodd" d="M29.2154 3.8407V3.8407C27.5604 2.3757 25.0321 2.52903 23.5671 4.18403C23.5671 4.18403 16.2854 12.409 13.7604 15.264C11.2321 18.1174 13.0854 22.059 13.0854 22.059C13.0854 22.059 17.2588 23.3807 19.7488 20.5674C22.2404 17.754 29.5588 9.48903 29.5588 9.48903C31.0238 7.83403 30.8688 5.3057 29.2154 3.8407Z" stroke="#1A1A1A" stroke-width="2.5" stroke-linecap="round" stroke-linejoin="round"/>
<path d="M21.6821 6.33447L24.7038 9.00947" stroke="#1A1A1A" stroke-width="2.5" stroke-linecap="round" stroke-linejoin="round"/>
</svg>
