<svg width="20" height="20" viewBox="0 0 20 20" fill="none" xmlns="http://www.w3.org/2000/svg">
<path fill-rule="evenodd" clip-rule="evenodd" d="M0.5 9.75C0.5 16.687 2.813 19 9.75 19C16.687 19 19 16.687 19 9.75C19 2.813 16.687 0.5 9.75 0.5C2.813 0.5 0.5 2.813 0.5 9.75Z" stroke="white" stroke-linecap="round" stroke-linejoin="round"/>
<path d="M8.34915 6.53395C8.34915 7.50695 7.56115 8.29495 6.58815 8.29495C5.61615 8.29495 4.82715 7.50695 4.82715 6.53395C4.82715 5.56095 5.61615 4.77295 6.58815 4.77295" stroke="white" stroke-linecap="round" stroke-linejoin="round"/>
<path d="M18.8702 12.4172C17.9892 11.5112 16.7432 9.68018 14.4542 9.68018C12.1652 9.68018 12.1152 13.7182 9.77919 13.7182C7.44219 13.7182 6.50119 12.3472 4.97819 13.0632C4.47519 13.2992 4.00319 13.7682 3.59619 14.2912" stroke="white" stroke-linecap="round" stroke-linejoin="round"/>
</svg>
